<svg xmlns="http://www.w3.org/2000/svg" height="80" width="90">
	<path
		d="M21.7981 59.4161C24.2173 62.6925 29.2989 62.1887 31.015 58.5023L38.8018 41.7754L49.3518 64.6412C51.3907 69.0607 57.8492 68.6863 59.354 64.0614L69.3887 33.2175L72.839 39.9119C74.1886 42.5307 77.4256 43.5696 80.069 42.2323C82.712 40.895 83.7607 37.6879 82.4111 35.069L73.0483 16.9035C70.8694 12.6757 64.6177 13.1732 63.1478 17.6914L53.3715 47.7405L43.711 26.8025C41.801 22.6626 35.8681 22.6526 33.9439 26.7862L25.0803 45.8262L19.9173 38.8338C17.8232 35.9976 13.5793 35.9139 11.3728 38.6651L1.16673 51.3909C-0.679641 53.6933 -0.292732 57.0424 2.03092 58.8718C4.35458 60.7012 7.73502 60.3181 9.58141 58.0157L15.4036 50.7559L21.7981 59.4161Z"
		fill="#7a87ff" />
</svg>