<!-- https://www.svgrepo.com/svg/275553/parrot?edit=true -->
<svg height="200px" width="200px" version="1.1" id="Layer_1" xmlns="http://www.w3.org/2000/svg"
	xmlns:xlink="http://www.w3.org/1999/xlink" viewBox="0 0 511.979 511.979" xml:space="preserve" fill="#000000">
	<g id="SVGRepo_bgCarrier" stroke-width="0"></g>
	<g id="SVGRepo_iconCarrier">
		<path style="fill:#FFCE54;"
			d="M309.316,437.311c-5.891,0-10.656-4.766-10.656-10.655v-43.39c0-5.906,4.766-10.671,10.656-10.671 s10.671,4.765,10.671,10.671v43.39C319.987,432.546,315.206,437.311,309.316,437.311z">
		</path>
		<path style="fill:#A85D5D;"
			d="M501.306,437.311H10.671C4.781,437.311,0,432.545,0,426.656c0-5.891,4.781-10.672,10.671-10.672 h490.636c5.891,0,10.672,4.781,10.672,10.672C511.978,432.546,507.197,437.311,501.306,437.311z">
		</path>
		<path style="fill:#F6BB42;"
			d="M424.608,114.605l-35.297-48.389c-2.219-3.047-5.891-4.703-9.64-4.344l-70.902,6.859 c-5.469,0.516-9.641,5.109-9.641,10.609v59.326c0,4.89,3.328,9.155,8.078,10.343l41.419,10.358c0.844,0.219,1.719,0.312,2.594,0.312 c0.016,0,0.047,0,0.078,0c43.904-0.328,71.467-30.373,72.607-31.654C427.279,124.277,427.576,118.668,424.608,114.605z">
		</path>
		<path style="fill:#8ABE52;"
			d="M350.454,150.495c-0.969-1.297-2.219-2.359-3.656-3.109L228.881,86.512 c-3.297-1.703-7.265-1.562-10.437,0.375c-3.188,1.938-5.125,5.391-5.125,9.109v90.902c-7.562,7.141-20.999,24.687-33.983,65.889 c-32.217,102.323-51.045,235.053-51.232,236.38c-0.438,3.062,0.484,6.141,2.516,8.484c2.016,2.328,4.953,3.656,8.046,3.656h21.327 c3.562,0,6.89-1.781,8.875-4.75l40.374-60.544c12.469-3.219,50.498-13.952,89.06-34.279c27.436-14.469,49.419-30.827,65.31-48.624 c20.592-23.062,31.045-48.56,31.045-75.793C394.655,210.554,352.251,152.916,350.454,150.495z">
		</path>
		<path style="fill:#FFCE54;"
			d="M401.108,45.171c-22.921-11.75-46.373-12.094-48.967-12.094l-0.297,0.016 c-3.406,0.047-6.594,1.719-8.562,4.516c-1.969,2.781-2.5,6.344-1.391,9.562l21.328,62.92c1.062,3.155,3.562,5.64,6.718,6.687 l63.998,21.344c1.109,0.359,2.25,0.547,3.375,0.547c2.219,0,4.405-0.688,6.233-2.016c2.781-2,4.438-5.219,4.438-8.656 C447.981,79.42,422.483,56.139,401.108,45.171z">
		</path>
		<path style="fill:#A0D468;"
			d="M298.66,10.672c-47.061,0-85.341,38.28-85.341,85.325s38.28,85.324,85.341,85.324 c47.044,0,85.323-38.279,85.323-85.324S345.704,10.672,298.66,10.672z">
		</path>
		<path style="fill:#434A54;"
			d="M309.316,96.544c0,5.891-4.766,10.656-10.656,10.656s-10.672-4.766-10.672-10.656 s4.781-10.672,10.672-10.672S309.316,90.653,309.316,96.544z">
		</path>
		<path style="fill:#DA4453;"
			d="M134.369,449.639c-4.047,23.873-6.203,39.076-6.266,39.528c-0.438,3.062,0.484,6.141,2.516,8.484 c2.016,2.328,4.953,3.656,8.046,3.656h21.327c3.562,0,6.89-1.781,8.875-4.75l34.202-51.294L134.369,449.639z">
		</path>
		<path style="fill:#ED5564;"
			d="M351.844,254.724c-2.391-18.827-12.078-36.67-27.249-50.232 c-15.717-14.046-35.686-21.78-56.248-21.78c-17.436,0-34.529,5.359-50.81,15.922c-17.671,11.452-33.905,28.857-48.233,51.686 c-17.484,27.89-29.827,70.7-36.67,127.244c-5.031,41.577-5.094,74.748-5.094,76.139c0,5.891,4.781,10.654,10.671,10.654 c30.624,0,61.263-7.795,91.059-23.17c26.827-13.843,51.904-33.53,72.514-56.92C338.173,342.939,356.891,294.52,351.844,254.724z">
		</path>
	</g>
</svg>